<mxfile host="app.diagrams.net" modified="2023-09-23T13:34:34.977Z" agent="Mozilla/5.0 (Windows NT 10.0; Win64; x64) AppleWebKit/537.36 (KHTML, like Gecko) Chrome/117.0.0.0 Safari/537.36" version="21.8.1" etag="uBSspDU1yRgyQs652GON" type="github">
  <diagram name="PÃ¡gina-1" id="5TswXGlN6VXrRAYgTOBc">
    <mxGraphModel>
      <root>
        <mxCell id="0" />
        <mxCell id="1" parent="0" />
      </root>
    </mxGraphModel>
  </diagram>
</mxfile>
